# xmcd
#
# Track frame offsets: 
#        150
#        18855
#        42782
#        54397
#
# Disc length: 985 seconds
#
# Revision: 1
# Processed by: cddbd v1.5.2PL0 Copyright (c) Steve Scherf et al.
# Submitted via: ExactAudioCopy v0.95b4
#
DISCID=2403d704
DTITLE=Robert Plant - Excerpts From Manic Nirvana [CD Maxi-Single)
DYEAR=1900
DGENRE=Rock
TTITLE0=Hurting Kind
TTITLE1=Tie Die On The Highway
TTITLE2=Liars Dance
TTITLE3=Watching You
EXTD=
EXTT0=
EXTT1=
EXTT2=
EXTT3=
PLAYORDER=
